<svg xmlns="http://www.w3.org/2000/svg" xmlns:xlink="http://www.w3.org/1999/xlink" version="1.1" x="0px" y="0px" viewBox="0 0 96 96" enable-background="new 0 0 96 96" xml:space="preserve"><path d="M16.228,63.948c-8.764,0-15.9,7.132-15.9,15.899c0,8.769,7.132,15.904,15.9,15.904s15.9-7.132,15.9-15.904  C32.128,71.084,24.992,63.948,16.228,63.948z"></path><path d="M95.588,85.176C95.26,39.084,54.977,0.252,7.324,0.252c-1.104,0-2,0.896-2,2v18.416c0,1.1,0.896,2,2,2  c37.476,0,65.74,27.116,65.74,63.084c0,1.104,0.899,2,2,2h18.531c0.032,0,0.057,0,0.08,0c1.108,0,2-0.896,2-2  C95.672,85.552,95.641,85.355,95.588,85.176z"></path><path d="M7.324,31.636c-1.104,0-2,0.896-2,2v14.716c0,1.096,0.896,2,2,2c23.904,0,38.176,13.24,38.176,35.404c0,1.1,0.896,2,2,2  h14.592c1.104,0,2-0.9,2-2C64.088,57.424,37.032,31.636,7.324,31.636z"></path></svg>